<svg width="124" height="37" viewBox="0 0 124 37" fill="none" xmlns="http://www.w3.org/2000/svg">
<path fill-rule="evenodd" clip-rule="evenodd" d="M7 10.2472L11.2473 6L15.1203 9.87311C16.2932 11.046 16.2932 12.9476 15.1203 14.1203C13.9474 15.2932 12.0459 15.2932 10.873 14.1203L7 10.2472Z" fill="#3E7EF8"/>
<path fill-rule="evenodd" clip-rule="evenodd" d="M0 17.2051L4.194 13.0113L8.01844 16.8358C9.17663 17.994 9.17663 19.8716 8.01844 21.0296C6.86044 22.1878 4.98263 22.1878 3.82463 21.0296L0 17.2051Z" fill="#3E7EF8"/>
<path fill-rule="evenodd" clip-rule="evenodd" d="M20.7765 33.921L16.6947 29.8138C14.5731 27.679 14.5731 24.2059 16.6947 22.0711L18.8691 19.883L21.0436 17.6952C24.7499 13.9658 24.7501 7.89746 21.0436 4.16794L16.9616 0.060936L14.0873 2.95292L18.1693 7.06029C20.2909 9.19508 20.2907 12.6684 18.1693 14.8028L15.9948 16.9909L13.8202 19.1789C10.1139 22.9082 10.1139 28.9764 13.8204 32.706L17.9022 36.8131L20.7765 33.921Z" fill="#3E7EF8"/>
<path fill-rule="evenodd" clip-rule="evenodd" d="M27 26.7528L22.7527 31L18.8797 27.1269C17.7068 25.954 17.7068 24.0524 18.8797 22.8797C20.0524 21.7068 21.9541 21.7068 23.1268 22.8797L27 26.7528Z" fill="#3E7EF8"/>
<path fill-rule="evenodd" clip-rule="evenodd" d="M34 19.7528L29.7528 24L25.8795 20.1269C24.7068 18.9541 24.7068 17.0524 25.8795 15.8797C27.0525 14.7068 28.954 14.7068 30.1269 15.8797L34 19.7528Z" fill="#3E7EF8"/>
<path fill-rule="evenodd" clip-rule="evenodd" d="M99.5 11C98.6716 11 98 10.3194 98 9.4801V8H101V9.4801C101 10.3194 100.328 11 99.5 11Z" fill="#3E7EF8"/>
<path fill-rule="evenodd" clip-rule="evenodd" d="M116.552 22.8888C117.174 22.8888 117.729 22.8071 118.215 22.6427C118.7 22.4786 119.108 22.2581 119.437 21.9816C119.767 21.7054 120.015 21.3941 120.18 21.0482C120.345 20.7025 120.427 20.3482 120.427 19.9853V19.726L116.689 20.3482C115.938 20.4693 115.397 20.6465 115.068 20.8798C114.738 21.113 114.573 21.4285 114.573 21.8259C114.573 22.189 114.77 22.457 115.164 22.6296C115.558 22.8027 116.02 22.8888 116.552 22.8888ZM111.962 15.5778C112.035 15.2148 112.205 14.8261 112.471 14.4113C112.736 13.9962 113.111 13.6074 113.597 13.2445C114.082 12.8814 114.678 12.5832 115.384 12.35C116.089 12.1166 116.909 12 117.844 12C118.778 12 119.621 12.1166 120.372 12.35C121.123 12.5832 121.769 12.925 122.31 13.3742C122.85 13.8236 123.267 14.3898 123.56 15.0722C123.853 15.7554 124 16.5368 124 17.4184V25.0407C124 25.2313 123.927 25.3953 123.78 25.5334C123.633 25.6719 123.459 25.7408 123.258 25.7408H121.169C120.967 25.7408 120.793 25.6719 120.647 25.5334C120.5 25.3953 120.427 25.2313 120.427 25.0407V24.1854C120.042 24.6866 119.488 25.1145 118.764 25.4684C118.04 25.8226 117.12 26 116.002 26C115.214 26 114.508 25.9004 113.886 25.7018C113.263 25.5036 112.741 25.2225 112.319 24.8592C111.897 24.4965 111.572 24.0686 111.343 23.576C111.114 23.0833 111 22.5433 111 21.9556C111 20.763 111.449 19.8297 112.347 19.1557C113.244 18.4815 114.444 18.0237 115.947 17.7817L120.427 17.0557C120.427 16.347 120.18 15.846 119.685 15.5519C119.19 15.2581 118.576 15.1112 117.844 15.1112C117.385 15.1112 117.028 15.172 116.772 15.2925C116.515 15.4136 116.268 15.5778 116.03 15.7853C115.865 15.9237 115.713 16.0186 115.576 16.0704C115.439 16.1222 115.287 16.1481 115.122 16.1481H112.567C112.383 16.1481 112.227 16.0964 112.099 15.9925C111.971 15.889 111.925 15.7507 111.962 15.5778Z" fill="#3E7EF8"/>
<path fill-rule="evenodd" clip-rule="evenodd" d="M43.6096 23.6072H48.5563C49.5363 23.6072 50.2542 23.3948 50.7086 22.9694C51.163 22.5443 51.3904 21.9878 51.3904 21.3002C51.3904 20.6126 51.154 20.0514 50.682 19.6171C50.2094 19.1829 49.501 18.9658 48.5563 18.9658H43.6096V23.6072ZM51.0161 13.4829C51.0161 12.7953 50.8023 12.2748 50.3743 11.9221C49.9467 11.5692 49.269 11.3928 48.3422 11.3928H43.6096V15.573H48.3422C49.269 15.573 49.9467 15.3964 50.3743 15.0437C50.8023 14.6908 51.0161 14.1709 51.0161 13.4829ZM40.722 27C40.5254 27 40.3563 26.9279 40.2139 26.7829C40.071 26.6383 40 26.4666 40 26.2671V8.73288C40 8.53379 40.071 8.36213 40.2139 8.21712C40.3563 8.0725 40.5254 8 40.722 8H48.6098C49.7502 8 50.704 8.17636 51.4707 8.52928C52.2371 8.882 52.8519 9.32565 53.3158 9.85924C53.7791 10.393 54.1132 10.9721 54.3184 11.5964C54.523 12.2207 54.6257 12.8041 54.6257 13.3473C54.6257 13.8899 54.5543 14.3745 54.4118 14.7993C54.269 15.2247 54.0952 15.5863 53.8906 15.8851C53.6854 16.1836 53.4802 16.4324 53.2754 16.6313C53.0702 16.8306 52.9054 16.9664 52.7809 17.0385C53.3331 17.4187 53.8412 17.9572 54.3051 18.6536C54.7682 19.3502 55 20.2326 55 21.3002C55 21.9878 54.8753 22.6709 54.6257 23.3493C54.3759 24.0279 54.0107 24.6387 53.5297 25.1813C53.0482 25.7245 52.4467 26.1633 51.7248 26.498C51.0026 26.833 50.1691 27 49.2246 27H40.722Z" fill="#3E7EF8"/>
<path fill-rule="evenodd" clip-rule="evenodd" d="M60 26.2774C60 26.4741 59.9382 26.6434 59.8154 26.7859C59.692 26.9289 59.546 27 59.3769 27H57.6229C57.4535 27 57.3074 26.9289 57.1846 26.7859C57.0611 26.6434 57 26.4741 57 26.2774V8.72256C57 8.52627 57.0611 8.35703 57.1846 8.21387C57.3074 8.07148 57.4535 8 57.6229 8H59.3769C59.546 8 59.692 8.07148 59.8154 8.21387C59.9382 8.35703 60 8.52627 60 8.72256V26.2774Z" fill="#3E7EF8"/>
<path fill-rule="evenodd" clip-rule="evenodd" d="M62 12.713C62 12.5195 62.0721 12.3522 62.2176 12.2111C62.3623 12.0704 62.5347 12 62.7341 12H64.8013C65.0006 12 65.1726 12.0704 65.3179 12.2111C65.4628 12.3522 65.5356 12.5195 65.5356 12.713V19.4226C65.5356 20.4793 65.7667 21.3245 66.2291 21.9584C66.6913 22.5925 67.4483 22.9094 68.4999 22.9094C69.4608 22.9094 70.1952 22.5925 70.7029 21.9584C71.2103 21.3245 71.4646 20.4793 71.4646 19.4226V12.713C71.4646 12.5195 71.5368 12.3522 71.6821 12.2111C71.827 12.0704 71.999 12 72.1989 12H74.2657C74.4651 12 74.6371 12.0704 74.7826 12.2111C74.9274 12.3522 75 12.5195 75 12.713V25.0226C75 25.2166 74.9274 25.3836 74.7826 25.5246C74.6371 25.6657 74.4651 25.7359 74.2657 25.7359H72.1989C71.999 25.7359 71.827 25.6657 71.6821 25.5246C71.5368 25.3836 71.4646 25.2166 71.4646 25.0226V24.4151C71.0471 24.8205 70.5305 25.1857 69.9144 25.5112C69.2977 25.8369 68.5543 26 67.6843 26C66.5779 26 65.6621 25.8326 64.9372 25.4983C64.2119 25.1638 63.6318 24.7147 63.1967 24.1511C62.7612 23.5876 62.453 22.9316 62.2719 22.1829C62.0903 21.4345 62 20.6469 62 19.8189V12.713Z" fill="#3E7EF8"/>
<path fill-rule="evenodd" clip-rule="evenodd" d="M101 25.2731C101 25.4709 100.938 25.6412 100.815 25.7846C100.692 25.9285 100.546 26 100.377 26H98.6229C98.4535 26 98.3074 25.9285 98.1846 25.7846C98.0611 25.6412 98 25.4709 98 25.2731V12.7268C98 12.5295 98.0611 12.3592 98.1846 12.2152C98.3074 12.0717 98.4535 12 98.6229 12H100.377C100.546 12 100.692 12.0717 100.815 12.2152C100.938 12.3592 101 12.5295 101 12.7268V25.2731Z" fill="#3E7EF8"/>
<path fill-rule="evenodd" clip-rule="evenodd" d="M109.528 15.2306C108.454 15.2306 107.679 15.4688 107.204 15.9442C106.73 16.42 106.493 17.1959 106.493 18.273V25.2731C106.493 25.4709 106.421 25.6412 106.278 25.7846C106.134 25.9285 105.964 26 105.767 26H103.725C103.528 26 103.358 25.9285 103.215 25.7846C103.071 25.6412 103 25.4709 103 25.2731V12.7268C103 12.5297 103.071 12.3592 103.215 12.2152C103.358 12.0717 103.528 12 103.725 12H105.767C105.964 12 106.134 12.0717 106.278 12.2152C106.421 12.3592 106.493 12.5297 106.493 12.7268V13.3462C106.958 12.9153 107.455 12.5835 107.984 12.3499C108.512 12.1168 109.206 12 110.066 12H111.275C111.472 12 111.642 12.0717 111.785 12.2152C111.928 12.3592 112 12.5297 112 12.7268V14.5039C112 14.7014 111.928 14.8718 111.785 15.0153C111.642 15.1593 111.472 15.2306 111.275 15.2306H109.528Z" fill="#3E7EF8"/>
<path fill-rule="evenodd" clip-rule="evenodd" d="M95.4978 15.2358C95.1631 14.5224 94.7243 13.9282 94.1813 13.4528C93.6719 13.0067 93.1003 12.6654 92.4712 12.4205C92.4299 12.4045 92.3909 12.385 92.3492 12.3698C91.6708 12.1232 90.9879 12 90.3001 12C89.5229 12 88.8451 12.123 88.2645 12.3656C88.0476 12.4562 87.843 12.5622 87.6535 12.6867C87.2024 12.9834 86.8185 13.2993 86.4999 13.6328C86.1815 13.2993 85.7976 12.9834 85.3463 12.6867C85.157 12.5622 84.9526 12.4563 84.7357 12.3656C84.1549 12.123 83.4771 12 82.6999 12C82.0121 12 81.3292 12.1232 80.6506 12.3698C80.6091 12.385 80.5699 12.4045 80.5288 12.4205C79.8995 12.6654 79.3279 13.0067 78.8187 13.4528C78.2757 13.9282 77.8369 14.5224 77.5022 15.2358C77.167 15.9491 77 16.7725 77 17.7056V25.2868C77 25.4809 77.0719 25.648 77.2171 25.7887C77.3615 25.9298 77.5336 26 77.7327 26H79.7957C79.9948 26 80.1664 25.9298 80.3116 25.7887C80.4563 25.648 80.5288 25.4809 80.5288 25.2868V17.9598C80.5297 16.9952 80.7222 16.2881 81.1068 15.8402C81.1325 15.8102 81.1603 15.7837 81.187 15.7559C81.5612 15.3647 82.038 15.1666 82.6198 15.1666C83.2429 15.1666 83.7516 15.4002 84.1453 15.8667C84.5388 16.3331 84.7355 17.033 84.7357 17.9655V25.2868C84.7357 25.4809 84.8076 25.648 84.9528 25.7887C85.0973 25.9298 85.2693 26 85.4684 26H87.5314C87.7305 26 87.9022 25.9298 88.0474 25.7887C88.1918 25.648 88.2645 25.4809 88.2645 25.2868V17.9589C88.2655 16.9949 88.4579 16.2879 88.8425 15.8402C88.8682 15.8102 88.8958 15.7837 88.9227 15.7559C89.297 15.3647 89.7737 15.1666 90.3555 15.1666C90.9787 15.1666 91.4874 15.4002 91.881 15.8667C92.2733 16.332 92.4699 17.0294 92.4712 17.9583V25.2868C92.4712 25.4809 92.5432 25.648 92.6884 25.7887C92.8328 25.9298 93.0046 26 93.2039 26H95.2669C95.466 26 95.6377 25.9298 95.7829 25.7887C95.9273 25.648 96 25.4809 96 25.2868V17.7056C96 16.7725 95.8328 15.9491 95.4978 15.2358Z" fill="#3E7EF8"/>
</svg>
