<svg xmlns="http://www.w3.org/2000/svg" xmlns:xlink="http://www.w3.org/1999/xlink" version="1.1" id="Layer_1" x="0px" y="0px" viewBox="0 0 160 37" style="enable-background:new 0 0 160 37;" xml:space="preserve">
<style type="text/css">
	.st0{fill:#010101;}
	.st1{fill:#304E91;}
</style>
<g>
	<g>
		<path class="st0" d="M64.8,13.7c-0.4-0.6-1-1-1.6-1.3c-0.7-0.3-1.3-0.4-2-0.4c-0.9,0-1.6,0.2-2.3,0.5c-0.7,0.3-1.3,0.8-1.8,1.3    c-0.5,0.6-0.9,1.2-1.1,2c-0.3,0.7-0.4,1.6-0.4,2.4c0,0.8,0.1,1.6,0.4,2.3c0.3,0.7,0.6,1.3,1.1,1.9c0.5,0.5,1.1,1,1.8,1.3    c0.7,0.3,1.5,0.5,2.4,0.5c0.9,0,1.6-0.2,2.3-0.5c0.7-0.4,1.2-0.9,1.7-1.5l1.7,1.3c-0.1,0.2-0.3,0.4-0.6,0.7    c-0.3,0.3-0.7,0.6-1.1,0.9c-0.5,0.3-1,0.6-1.7,0.8C62.8,25.9,62,26,61.1,26c-1.2,0-2.3-0.2-3.2-0.7c-1-0.5-1.8-1.1-2.5-1.8    c-0.7-0.7-1.2-1.6-1.6-2.5c-0.4-0.9-0.5-1.9-0.5-2.8c0-1.2,0.2-2.3,0.6-3.2c0.4-1,0.9-1.8,1.6-2.6c0.7-0.7,1.5-1.3,2.5-1.7    c1-0.4,2-0.6,3.2-0.6c1,0,2,0.2,2.9,0.6c1,0.4,1.8,1,2.4,1.8L64.8,13.7z"/>
		<path class="st0" d="M74,10.4h1.9l6.5,15.2h-2.4l-1.5-3.7h-7.2l-1.5,3.7h-2.4L74,10.4z M77.7,20l-2.8-7h0l-2.9,7H77.7z"/>
		<path class="st0" d="M84.6,22.4c0.4,0.6,0.8,1,1.4,1.2c0.6,0.3,1.2,0.4,1.8,0.4c0.3,0,0.7-0.1,1-0.2c0.4-0.1,0.7-0.3,1-0.5    c0.3-0.2,0.5-0.5,0.7-0.8c0.2-0.3,0.3-0.7,0.3-1.1c0-0.6-0.2-1-0.6-1.3c-0.4-0.3-0.8-0.6-1.4-0.8c-0.6-0.2-1.2-0.4-1.8-0.6    c-0.6-0.2-1.2-0.5-1.8-0.8c-0.5-0.3-1-0.8-1.4-1.4c-0.4-0.6-0.6-1.4-0.6-2.3c0-0.4,0.1-0.9,0.3-1.4c0.2-0.5,0.5-1,0.9-1.4    c0.4-0.4,0.9-0.8,1.6-1c0.6-0.3,1.4-0.4,2.3-0.4c0.8,0,1.6,0.1,2.4,0.3c0.8,0.2,1.4,0.7,2,1.4l-1.7,1.5c-0.3-0.4-0.6-0.7-1.1-1    c-0.5-0.2-1-0.4-1.6-0.4c-0.6,0-1,0.1-1.4,0.2c-0.4,0.2-0.7,0.3-0.9,0.6c-0.2,0.2-0.4,0.5-0.5,0.8c-0.1,0.3-0.1,0.5-0.1,0.7    c0,0.6,0.2,1.1,0.6,1.5c0.4,0.3,0.8,0.6,1.4,0.8c0.5,0.2,1.1,0.4,1.8,0.6c0.6,0.2,1.2,0.4,1.8,0.7c0.5,0.3,1,0.7,1.4,1.2    c0.4,0.5,0.6,1.2,0.6,2.2c0,0.7-0.1,1.4-0.4,2c-0.3,0.6-0.7,1.1-1.1,1.5c-0.5,0.4-1,0.7-1.7,0.9c-0.6,0.2-1.3,0.3-2.1,0.3    c-1,0-1.9-0.2-2.8-0.5c-0.9-0.3-1.6-0.9-2.1-1.6L84.6,22.4z"/>
		<path class="st0" d="M100.7,10.4h1.9l6.5,15.2h-2.4l-1.5-3.7h-7.2l-1.5,3.7H94L100.7,10.4z M104.4,20l-2.8-7h0l-2.9,7H104.4z"/>
		<path class="st0" d="M117.9,26c-1.2,0-2.2-0.2-3.2-0.6c-1-0.4-1.8-1-2.5-1.7c-0.7-0.7-1.2-1.6-1.6-2.5c-0.4-1-0.6-2-0.6-3.1    c0-1.1,0.2-2.2,0.6-3.1c0.4-1,0.9-1.8,1.6-2.5c0.7-0.7,1.5-1.3,2.5-1.7c1-0.4,2-0.6,3.2-0.6c1.2,0,2.2,0.2,3.2,0.6    c1,0.4,1.8,1,2.5,1.7c0.7,0.7,1.2,1.6,1.6,2.5c0.4,1,0.6,2,0.6,3.1c0,1.1-0.2,2.2-0.6,3.1c-0.4,1-0.9,1.8-1.6,2.5    c-0.7,0.7-1.5,1.3-2.5,1.7C120.1,25.8,119,26,117.9,26z M117.9,24.1c0.9,0,1.7-0.2,2.4-0.5c0.7-0.3,1.3-0.8,1.8-1.3    c0.5-0.5,0.9-1.2,1.2-1.9c0.3-0.7,0.4-1.5,0.4-2.3c0-0.8-0.1-1.6-0.4-2.3c-0.3-0.7-0.7-1.4-1.2-1.9c-0.5-0.5-1.1-1-1.8-1.3    c-0.7-0.3-1.5-0.5-2.4-0.5c-0.9,0-1.7,0.2-2.4,0.5c-0.7,0.3-1.3,0.8-1.8,1.3c-0.5,0.5-0.9,1.2-1.2,1.9c-0.3,0.7-0.4,1.5-0.4,2.3    c0,0.8,0.1,1.6,0.4,2.3c0.3,0.7,0.7,1.4,1.2,1.9c0.5,0.5,1.1,1,1.8,1.3C116.2,23.9,117,24.1,117.9,24.1z"/>
		<path class="st0" d="M128.6,10.4h2.7l8.4,12.5h0V10.4h2.1v15.2h-2.6l-8.4-12.5h0v12.5h-2.1V10.4z"/>
		<path class="st0" d="M145.5,10.4h9.8v1.9h-7.7v4.5h7.2v1.9h-7.2v4.9h8.1v1.9h-10.2V10.4z"/>
	</g>
	<g>
		<circle class="st1" cx="30.1" cy="24.9" r="8"/>
		<g>
			<polygon class="st0" points="22.3,35.8 4.3,35.8 4.3,1.2 38.9,1.2 38.9,15.2 36.7,15.2 36.7,3.4 6.5,3.4 6.5,33.6 22.3,33.6         "/>
		</g>
		<g>
			<path class="st0" d="M30.1,33.8c-4.9,0-9-4-9-9c0-4.9,4-9,9-9s9,4,9,9C39.1,29.8,35.1,33.8,30.1,33.8z M30.1,18.1     c-3.7,0-6.7,3-6.7,6.7c0,3.7,3,6.7,6.7,6.7c3.7,0,6.7-3,6.7-6.7C36.9,21.2,33.8,18.1,30.1,18.1z"/>
		</g>
	</g>
</g>
</svg>