<svg xmlns="http://www.w3.org/2000/svg" xmlns:xlink="http://www.w3.org/1999/xlink" viewBox="0 0 1636.7 473.13"><defs><style>.a{fill:#323232;}.b{fill:url(#a);}.c{fill:none;}.d{fill:url(#b);}.e{fill:url(#c);}.f{fill:url(#d);}.g{fill:url(#e);}.h{fill:url(#f);}.i{fill:url(#g);}</style><linearGradient id="a" x1="348.92" y1="1358.81" x2="424.85" y2="1241.89" gradientTransform="translate(0 -986.7)" gradientUnits="userSpaceOnUse"><stop offset="0.01" stop-color="#c6bd47"/><stop offset="0.34" stop-color="#fab62a"/><stop offset="0.74" stop-color="#f9a129"/><stop offset="1" stop-color="#f99a28"/></linearGradient><linearGradient id="b" x1="387.41" y1="1179.46" x2="368.88" y2="1074.35" gradientTransform="translate(0 -986.7)" gradientUnits="userSpaceOnUse"><stop offset="0.4" stop-color="#8773fa"/><stop offset="1" stop-color="#ce57fb"/></linearGradient><linearGradient id="c" x1="311.17" y1="1218.2" x2="469.18" y2="1126.98" gradientTransform="translate(0 -986.7)" gradientUnits="userSpaceOnUse"><stop offset="0.39" stop-color="#32d2df"/><stop offset="0.55" stop-color="#4bbdfb"/><stop offset="0.81" stop-color="#8271fa"/></linearGradient><linearGradient id="d" x1="275.5" y1="1355.98" x2="480.8" y2="1355.98" gradientTransform="translate(0 -986.7)" gradientUnits="userSpaceOnUse"><stop offset="0.01" stop-color="#f78243"/><stop offset="0.44" stop-color="#f8932f"/><stop offset="0.91" stop-color="#f9a328"/></linearGradient><linearGradient id="e" x1="301.17" y1="338.7" x2="108.7" y2="109.32" gradientTransform="matrix(1, 0, 0, -1, 0, 474)" gradientUnits="userSpaceOnUse"><stop offset="0" stop-color="#38d7ee"/><stop offset="1" stop-color="#fbc22c"/></linearGradient><linearGradient id="f" x1="207.5" y1="201" x2="319.1" y2="201" gradientTransform="matrix(1, 0, 0, -1, 0, 474)" gradientUnits="userSpaceOnUse"><stop offset="0.01" stop-color="#f78243"/><stop offset="0.06" stop-color="#f78441"/></linearGradient><linearGradient id="g" x1="276.73" y1="358.21" x2="277.31" y2="357.72" gradientTransform="matrix(1, 0, 0, -1, 0, 474)" gradientUnits="userSpaceOnUse"><stop offset="0" stop-color="#38d7ee"/><stop offset="0.96" stop-color="#2cd7fb"/></linearGradient></defs><path class="a" d="M1469.05,47c7-.65,13.46-3.43,20.41-4.09,0,23.42.29,46.86-.15,70.27,12.34.73,24.72.14,37.08.33,11.47-.08,22.94.16,34.41-.12.29,17.08.23,34.17,0,51.25h-52.08c-6.47,0-13-.29-19.4.43.46,46.29-.11,92.59.29,138.87,1.53,11.05,2.45,22.86,8.83,32.38,4.37,6.48,11.91,9.74,19.29,11.44,15.9,3.05,32.19,1.87,48.21.61-.29,5.43-2.18,10.54-3.38,15.8-2.94,12.26-5.85,24.54-8.5,36.88-18.43,0-36.92.69-55.29-1.25-15.47-2.15-31.08-7.2-43-17.69-11.54-9.61-18.24-23.72-22.26-37.9-2-6.24-2-12.85-3.54-19.18a198.55,198.55,0,0,1-2.2-31.1c.07-43.05-.15-86.1.12-129.14-16.43-.35-32.85,0-49.28-.16,1-4.85,1.38-9.86,3.19-14.51,3.2-12.28,6.27-24.61,10-36.72,12,.21,24.11.26,36.15,0-.57-18.92.08-37.88-.32-56.8,3.22-.72,6.3-2,9.56-2.62,10.81-1.55,21.19-5,31.86-7ZM633,133.68c34.89-23.09,79-29.49,119.84-22.72,23.24,4.91,45.95,13.13,65.94,26.11,2.11,1,1.47,3.37,1.11,5.19-3.74,15.17-7.84,30.27-10.73,45.64a8.77,8.77,0,0,1-1.8,4c-3-.78-5.28-3.14-7.87-4.72-28.75-19.37-65.12-28.81-99.41-21.63-5.9,1.83-12,3-17.61,5.78C666.06,179,651.86,192,644,208.47c-4.79,9.37-7,19.78-9.06,30-1.74,11.8-1.29,23.82,0,35.64,3.59,19.67,11.59,39.44,26.92,52.9,11.12,10.87,25.73,17.55,40.82,20.67,10.81,1.47,21.79,2.79,32.65,1,15.28-.82,29.69-6.64,43.47-12.86A122.47,122.47,0,0,0,802,320.26c9.39,16.62,18.89,33.19,28.13,49.9-11.78,7.82-24.69,13.87-37.72,19.3-8.44,3.8-17.42,6.12-26.29,8.59-9,2.73-18.53,2.62-27.72,4.37-10.46.83-21,.47-31.45.15-14.88-1.92-29.81-4.37-43.9-9.72C639.77,384,618.23,369.4,603,349.49c-13.63-17-22.25-37.62-26.65-58.85-1.84-6.09-1.39-12.56-2.63-18.75a56.3,56.3,0,0,1-.7-11c0-8.22-.44-16.53,1.23-24.64.56-11.56,3.61-22.79,7.15-33.74,4.94-15,12-29.49,22.21-41.68,8.64-10.26,18.12-19.94,29.42-27.15Zm610.12-23.26a155.27,155.27,0,0,1,55.84.94c12.09,2.16,23.54,6.77,34.82,11.5,8.1,3.26,14.93,8.85,22.61,12.92-2.76,18.26-7,36.27-10.37,54.45l-1.18-1.67a140.41,140.41,0,0,0-52.06-24.18c-11.21-2.12-22.7-4-34.1-2.18-7.29,1.6-14.7,3.85-20.4,8.87-8.32,7-11.06,20-5.54,29.5,3.77,6.74,10.08,11.69,16.91,15.1,26,13.55,56,17.42,81.6,31.86,10.83,6.32,21.78,13.45,28.89,24,11.31,16,14.91,36.43,12.23,55.58-1.71,6.52-2.16,13.41-5,19.6a80.25,80.25,0,0,1-26.19,33.15,120.08,120.08,0,0,1-30.14,15c-17,5.06-34.88,6.67-52.61,6.12-9.75-.77-19.67-.7-29.19-3.14-15.27-2.46-29.7-8.35-43.77-14.53-9.37-4.18-18-9.75-27.24-14.24,3.06-5.63,7.46-10.33,11.06-15.56,6.23-9.18,12.82-18.11,19.12-27.22,1.45-2.8,4.37-.41,6.15.69,6.5,4.47,13.77,7.62,20.92,10.9,10.65,4.69,22.09,7.17,33.43,9.55a121,121,0,0,0,30.42,0c9.62-2.32,19.76-6.36,25.41-15,4.69-6.26,4.43-14.64,3.8-22.05-.65-9.17-8.13-15.76-15-20.85-15.6-9.44-33.5-13.71-50.49-19.88-18.88-6.22-38.11-13.9-52.46-28.14-11.27-10.09-17.29-24.82-19.72-39.49a135,135,0,0,1,0-25.9c1.9-11.44,6-22.61,12.93-32,9.56-13.21,23.67-22.54,38.8-28.24,6.76-1.88,13.52-4.14,20.52-5.46Zm-295.68,5c9.36-2.62,19-3.76,28.66-5,11.39-.35,22.8-.42,34.19.09,12.24,1.7,24.7,2.5,36.54,6.34,26.36,6.13,51.1,18.56,72.6,34.89,2.34,2.13,6.26,3.73,5.78,7.53q.06,119.25,0,238.5h-60.29q-.09-24.35,0-48.71c-5.29,8-10.61,16.06-17.39,22.93-10.23,9.88-22,18.61-35.67,23.12-14,5.48-29.2,6.62-44,5.64-35.38-1-70.92-17.36-92.27-46-21.19-27.9-29.82-63.68-29.26-98.3C845.68,218,858.85,178.54,886,150.77c16.61-17.32,38.42-29.23,61.49-35.39Zm28.77,50a128.7,128.7,0,0,0-18.74,6.24c-19,8.35-33.27,25.34-40.71,44.47-10.15,26.57-10,56.49-1.57,83.51,4.27,13.89,13.32,26,24.81,34.8,11.63,7.72,25.57,11.56,39.47,11.9,13,.37,26.51-1,37.9-7.74,19.33-9.61,31.61-28.92,38.54-48.75,5.7-16,7.62-33,8.9-49.88.23-19,0-38,.15-57a94.35,94.35,0,0,0-35.82-15.09c-6.32-.9-12.46-2.88-18.87-3.07-11.34-.64-22.78-.89-34.06.57Z"/><path class="b" d="M369.25,307.5a61.67,61.67,0,0,1,32.6-9.3c11.9.1,20.1,3.5,25.6,7.9a27.17,27.17,0,0,1,10.3,22.6h42.9c1.4-20-6-40.1-24.1-52.8a20.51,20.51,0,0,1-1.8-1.3,79.94,79.94,0,0,0-36.6-12.5c-3.2-.3-6.5-.5-9.7-.7a154.26,154.26,0,0,0-68.6,13.5c-23,10.3-41,28.6-60.1,44.3,1,1.2,14.9,17,38.8,33,15.9-15.5,31.45-33,50.7-44.7Z"/><path class="c" d="M319,351.9l.1-.1Zm.15-201.1h.9l-1.1-.3h-.1Zm68.3,212.9c14.7-2,30.8-5.4,41.8-16.2a28.92,28.92,0,0,0,8.6-18.9,26.93,26.93,0,0,0-10.3-22.4c-5.5-4.4-13.7-7.9-25.6-7.9a62.55,62.55,0,0,0-32.6,9.3c-19.3,11.7-34.3,28.7-50.3,44.4h.1l.1-.1,22-6.9-22,6.9-.1.1,12-1-12,1-.1.1a131,131,0,0,0,27.8,9.7A115.25,115.25,0,0,0,387.45,363.7Z"/><path class="c" d="M369.25,194.9a61.67,61.67,0,0,0,32.6,9.3c11.9-.1,20.1-3.5,25.6-7.9a26.91,26.91,0,0,0,10.3-20,28.29,28.29,0,0,0-8.6-21.4c-11-10.8-27-14.3-41.8-16.2a111.3,111.3,0,0,0-40.7,2.1,128.29,128.29,0,0,0-27.7,9.7l1.1.3,7.6,2-7.6-2h-.9c15.9,15.6,30.9,32.5,50.1,44.1Z"/><path class="d" d="M319,150.5a132,132,0,0,1,27.7-9.7,111.3,111.3,0,0,1,40.7-2.1c14.7,2,30.8,5.4,41.8,16.2a28.2,28.2,0,0,1,8.5,21.4h43.1a71.21,71.21,0,0,0-4.7-23.3,75.48,75.48,0,0,0-9-16.8c-20.4-28.8-56.8-40.3-90.5-43.4-3.9-.3-7.7-.6-11.6-.8a151.07,151.07,0,0,0-88.2,23.7l.1.1c0,.1,26.65,21.2,42.1,34.7Z"/><path class="e" d="M427.45,196.3c-5.5,4.4-13.7,7.9-25.6,7.9a62.55,62.55,0,0,1-32.6-9.3c-19.2-11.7-35.3-29.9-51.2-45.5h-.3s-23.1,8.3-39,32l1.2,2c2.5,2,5.4,4.1,7.9,6.1,15.7,13.4,29.1,26.8,47.9,35.9a154.51,154.51,0,0,0,72.6,15.5c3.3-.1,6.5-.3,9.7-.7a79.94,79.94,0,0,0,36.6-12.5,20.51,20.51,0,0,0,1.8-1.3c17.4-12.2,24.9-31.3,24.3-50.4l-43.1-.2a27.15,27.15,0,0,1-10.2,20.5Z"/><path class="f" d="M437.75,328.5a28.64,28.64,0,0,1-8.6,18.9c-11,10.8-27,14.3-41.8,16.2a111.3,111.3,0,0,1-40.7-2.1A138.19,138.19,0,0,1,318,351.2c-16.9,15.9-41.1,33.6-42.5,34.6,26.3,16.8,58.3,25.8,89.5,24.3,3.9-.2,7.8-.4,11.6-.8,33.7-3.1,70.1-14.6,90.5-43.4a75.11,75.11,0,0,0,13.7-37.6Z"/><path class="g" d="M319.15,150.8h-.3s-22.5,8.4-38.5,32.1l-.4.6.1-.2-.1.2c-24.5-17.7-42.1-22.9-46-23.8h-.1a.37.37,0,0,1-.3-.1h-.2a111.59,111.59,0,0,0-16.1-3c-9.4-.9-20.1-1-29.1,2.2a75,75,0,0,0-10.9,4.8c-19.5,10.5-33.4,28.3-40.5,49.7-16.2,47.9-.6,111.9,51.4,130.5,9,3.2,19.7,3.2,29.1,2.2a118.63,118.63,0,0,0,16.6-3.2l43.2,43.4c-1.8,1.2-3.9,2.7-5.7,3.8-15.9,9.9-33.5,18.1-52.2,20.3-51.5,6.1-100.1-23.7-120.9-70.5a212.29,212.29,0,0,1-17.6-88.7,212.29,212.29,0,0,1,17.6-88.7,120.31,120.31,0,0,1,69.5-64.7,112.55,112.55,0,0,1,51.5-5.7c18.7,2.2,36.4,10.4,52.2,20.3,1.6,1,3.7,2.4,5.4,3.5.2.1.4.3.6.4,1.7,1.3,7.5,6,14.8,11.9,8.6,7,19.1,15.6,26.9,22.4h-.1Z"/><path class="h" d="M280.05,183.4c-17.2,24.8-20.4,52.9-20.7,67.8.4,20.4,5,53.4,21,67.6a150.74,150.74,0,0,0,10.7,10.9A216.64,216.64,0,0,0,319,351.8l.1.1c-8.4,8-18.7,16.4-27,23s-14.7,11.3-15.3,11.8h-.1c-25.2-16.4-42.7-42.9-43.4-43.9l-3.4-5.6-.8-1.3c-11-19.4-19-43.7-21.1-74.1-.3-3.4-.4-7-.5-10.6v-.1c.1-3.6.2-7.1.5-10.6,2.4-34,12.5-60.8,25.5-81.2-.05.1,23.75,3.2,46.55,24.1Z"/><path class="i" d="M277.35,116.3c-.2-.1-.4-.3-.6-.4l.1-.1.1.1C276.85,115.9,277.05,116,277.35,116.3Z"/></svg>